<svg xmlns="http://www.w3.org/2000/svg" viewBox="0 0 128 128" role="img" aria-labelledby="title">
  <title id="title">Yuko Global</title>
  <style>
    .mark{fill:#0a0a0a}
    @media (prefers-color-scheme:dark){.mark{fill:#fff}}
  </style>
  <g class="mark">
    <path d="M7 17h20l24 25 24-25h20L60 55v30H42V55L7 17Z"/>
    <path d="M96 27c-17 0-29 10-29 23s12 23 29 23c7 0 13-2 18-5v-8H94V47h34v30c-9 7-20 10-33 10-27 0-46-15-46-37s19-37 46-37c14 0 25 4 34 11l-11 11c-6-5-13-8-22-8Z"/>
    <path d="M39 84c16-10 30-14 43-12 10 1 19 7 29 8 7 1 14 0 21-2-8 10-19 15-32 14-12-1-20-6-30-7-9-1-19 1-31 6v-7Z"/>
  </g>
</svg>
