<svg xmlns="http://www.w3.org/2000/svg" viewBox="0 0 760 360" role="img" aria-labelledby="title desc">
  <title id="title">Yuko Global</title>
  <desc id="desc">Минималистичная белая монограмма YG с плавной линией воздушного потока на прозрачном фоне.</desc>
  <g fill="#fff">
    <path d="M54 50h86l101 111L342 50h86L278 215v95h-74v-95L54 50Z"/>
    <path d="M606 75c-74 0-126 50-126 105s52 105 126 105c34 0 62-9 84-24v-50h-96v-58h166v142c-41 32-92 49-154 49-118 0-204-70-204-164S488 16 606 16c62 0 112 17 151 51l-48 48c-27-26-61-40-103-40Z"/>
    <path d="M198 304c74-52 140-74 199-65 47 7 83 35 128 42 52 9 105-3 169-42-37 64-101 101-172 100-56-1-96-30-143-37-47-7-103 7-181 44v-42Z"/>
  </g>
</svg>
