<svg xmlns="http://www.w3.org/2000/svg" viewBox="0 0 760 260" role="img" aria-labelledby="title desc">
  <title id="title">Yuko Global</title>
  <desc id="desc">Белая минималистичная монограмма YG с линией воздушного потока на прозрачном фоне.</desc>
  <g fill="#fff">
    <path d="M36 24h82l100 105L318 24h82L255 178v57h-74v-57L36 24Z"/>
    <path d="M590 49c-69 0-118 39-118 83s49 83 118 83c31 0 57-7 78-19v-34h-91v-47h158v95c-38 27-86 41-145 41-111 0-191-50-191-119S479 13 590 13c58 0 106 14 143 42l-46 39c-25-20-57-31-97-31Z"/>
    <path d="M176 219c69-35 130-49 185-43 44 5 78 24 120 29 49 6 99-2 159-28-35 43-94 67-160 66-53-1-90-20-134-25-44-5-96 5-170 30v-29Z"/>
  </g>
</svg>
