<svg xmlns="http://www.w3.org/2000/svg" viewBox="0 0 128 128" role="img" aria-labelledby="title">
  <title id="title">Yuko Global</title>
  <style>
    .mark{fill:#0a0a0a}
    @media (prefers-color-scheme:dark){.mark{fill:#fff}}
  </style>
  <g class="mark">
    <path d="M8 20h18l22 25 22-25h18L57 55v29H39V55L8 20Z"/>
    <path d="M94 27c-17 0-29 11-29 24s12 24 29 24c7 0 13-2 18-5v-9H92V48h35v31c-9 7-20 11-34 11-27 0-47-16-47-39s20-39 47-39c14 0 25 4 34 12l-11 11c-6-5-13-8-22-8Z"/>
    <path d="M38 83c17-11 31-16 44-14 11 1 19 8 30 10 7 1 13 1 20-1-8 10-20 15-32 14-12-1-21-7-31-8-9-1-19 1-31 7v-8Z"/>
  </g>
</svg>
